<?xml version="1.0" standalone="no"?>
<!DOCTYPE svg PUBLIC "-//W3C//DTD SVG 20010904//EN"
 "http://www.w3.org/TR/2001/REC-SVG-20010904/DTD/svg10.dtd">
<svg version="1.0" xmlns="http://www.w3.org/2000/svg"
 width="1280.000000pt" height="768.000000pt" viewBox="0 0 1280.000000 768.000000"
 preserveAspectRatio="xMidYMid meet">
<metadata>
Created by potrace 1.15, written by Peter Selinger 2001-2017
</metadata>
<g transform="translate(0.000000,768.000000) scale(0.100000,-0.100000)"
fill="#000000" stroke="none">
<path d="M530 7524 c-107 -18 -198 -33 -202 -33 -5 -1 -8 -95 -8 -209 l0 -208
-34 4 c-42 5 -109 -30 -125 -65 -25 -55 34 -87 108 -57 67 27 71 42 71 278 0
205 0 206 23 211 30 6 335 55 347 55 6 0 10 -71 10 -180 l0 -180 -40 0 c-63 0
-130 -45 -130 -87 0 -40 75 -56 130 -28 58 30 60 39 60 276 l0 217 38 -9 c66
-17 340 -23 447 -10 164 19 147 33 -67 52 -111 9 -315 0 -385 -17 -15 -4 -28
-1 -36 8 -10 13 -38 10 -207 -18z"/>
<path d="M5660 7551 c-185 -20 -199 -33 -55 -50 160 -19 460 -8 488 19 24 22
-298 45 -433 31z"/>
<path d="M6214 7550 c-32 -13 -82 -76 -93 -117 -6 -21 -11 -63 -11 -94 0 -83
29 -131 129 -211 46 -36 102 -91 124 -121 l41 -55 13 25 c22 42 71 95 145 154
96 77 121 115 126 192 6 86 -12 143 -58 189 -33 33 -44 38 -84 38 -39 0 -52
-6 -86 -36 -22 -20 -43 -47 -46 -60 -8 -30 -20 -31 -28 -1 -8 30 -36 61 -77
86 -36 22 -61 25 -95 11z"/>
<path d="M6865 7550 c-121 -11 -178 -21 -169 -30 29 -27 348 -39 506 -19 139
18 117 32 -82 49 -124 11 -135 11 -255 0z"/>
<path d="M11608 7549 c-173 -15 -189 -31 -48 -48 153 -20 457 -8 483 19 12 11
-26 18 -148 30 -112 11 -162 11 -287 -1z"/>
<path d="M12384 7549 c-18 -5 -46 -26 -64 -46 -27 -30 -31 -42 -27 -72 3 -20
8 -43 11 -51 5 -12 -11 -22 -67 -43 -96 -37 -150 -70 -167 -102 -12 -23 -11
-28 7 -53 46 -62 151 -95 299 -95 89 0 90 0 107 -29 21 -36 22 -62 3 -77 -20
-17 -115 -30 -161 -22 l-40 7 42 7 c23 4 45 12 49 18 26 43 -126 63 -167 22
l-22 -22 33 -19 c76 -47 282 -34 310 19 8 14 6 29 -10 58 -11 22 -20 42 -20
44 0 3 17 8 37 12 74 14 121 53 107 90 -12 30 -85 58 -164 63 -71 4 -77 6 -92
32 l-16 29 53 26 c60 29 105 75 105 107 0 24 -80 108 -101 107 -8 0 -28 -5
-45 -10z m103 -65 c8 -22 -31 -59 -88 -84 -57 -24 -69 -20 -69 20 0 43 49 80
106 80 31 0 46 -5 51 -16z m-131 -191 c20 -27 18 -30 -35 -48 -27 -9 -57 -25
-67 -36 -17 -19 -17 -20 2 -40 18 -18 114 -55 114 -44 0 3 -16 11 -35 19 -19
8 -35 22 -35 30 0 13 86 55 93 45 2 -2 18 -30 35 -61 l32 -58 -79 0 c-211 0
-315 72 -204 141 29 18 142 66 162 68 2 1 10 -7 17 -16z m193 -96 c38 -18 39
-52 2 -71 -57 -30 -71 -19 -120 88 -5 12 84 0 118 -17z"/>
<path d="M1430 7479 c-36 -4 -76 -11 -90 -15 l-25 -6 24 -9 c55 -21 278 -33
409 -21 71 6 139 15 153 20 22 9 22 10 4 15 -80 25 -341 33 -475 16z"/>
<path d="M5030 7479 c-149 -17 -131 -33 59 -50 104 -9 163 -10 267 0 73 6 144
15 156 20 22 8 22 8 3 14 -78 24 -338 33 -485 16z"/>
<path d="M7386 7479 c-38 -4 -81 -11 -95 -14 -26 -7 -26 -7 -4 -16 13 -4 82
-14 154 -20 179 -17 489 10 419 35 -61 23 -336 31 -474 15z"/>
<path d="M10990 7479 c-36 -4 -76 -11 -90 -15 l-25 -6 24 -9 c55 -21 278 -33
409 -21 71 6 139 15 153 20 22 9 22 10 4 15 -80 25 -341 33 -475 16z"/>
<path d="M1986 7409 c-106 -14 -105 -23 5 -39 145 -22 509 -7 509 20 0 4 -15
11 -32 14 -59 11 -411 15 -482 5z"/>
<path d="M4416 7409 c-110 -15 -106 -23 19 -40 59 -7 151 -9 265 -5 180 6 240
12 240 26 0 4 -15 11 -32 14 -58 11 -421 15 -492 5z"/>
<path d="M7946 7409 c-106 -14 -105 -23 5 -39 159 -24 528 -6 498 24 -22 23
-366 32 -503 15z"/>
<path d="M10370 7409 c-104 -16 -98 -25 26 -40 88 -11 410 -6 467 7 36 9 34
20 -5 28 -58 12 -421 15 -488 5z"/>
<path d="M2655 7353 c-89 -8 -178 -26 -164 -33 24 -13 188 -30 294 -30 97 0
254 14 285 26 62 24 -250 51 -415 37z"/>
<path d="M3945 7353 c-84 -5 -187 -25 -178 -33 26 -26 328 -38 487 -20 105 12
135 24 84 34 -107 20 -264 28 -393 19z"/>
<path d="M8582 7350 c-170 -18 -178 -31 -32 -49 150 -19 431 -8 479 18 19 11
-12 18 -139 31 -107 11 -201 11 -308 0z"/>
<path d="M9868 7350 c-174 -17 -188 -32 -43 -49 157 -19 461 -7 488 19 12 11
-26 18 -148 30 -112 11 -184 11 -297 0z"/>
<path d="M3295 7289 c-137 -7 -265 -27 -265 -40 0 -5 1 -9 3 -9 1 0 52 -7 112
-15 61 -8 187 -15 280 -15 94 0 220 7 280 15 61 8 111 15 113 15 1 0 2 4 2 9
0 13 -115 31 -234 37 -55 3 -117 6 -136 7 -19 1 -89 -1 -155 -4z"/>
<path d="M9155 7283 c-92 -11 -165 -26 -165 -33 0 -21 154 -35 390 -35 162 0
270 5 318 13 112 21 98 32 -68 52 -79 9 -407 12 -475 3z"/>
<path d="M2582 7199 c-106 -12 -119 -24 -41 -37 116 -20 261 -24 379 -13 133
14 165 20 153 32 -25 25 -336 36 -491 18z"/>
<path d="M3855 7199 c-142 -18 -120 -33 75 -50 173 -15 484 10 420 35 -63 24
-354 32 -495 15z"/>
<path d="M8535 7199 c-142 -18 -120 -33 75 -50 173 -15 484 10 420 35 -63 24
-354 32 -495 15z"/>
<path d="M9817 7199 c-142 -16 -124 -31 59 -49 122 -12 266 -8 383 12 44 7 59
13 49 19 -45 25 -341 36 -491 18z"/>
<path d="M2095 7139 c-169 -11 -230 -28 -152 -43 72 -14 374 -18 462 -7 128
18 130 26 9 41 -116 14 -207 16 -319 9z"/>
<path d="M4575 7143 c-88 -4 -225 -24 -225 -33 0 -23 341 -38 485 -21 139 16
144 26 19 41 -95 11 -198 16 -279 13z"/>
<path d="M8085 7143 c-90 -4 -225 -24 -225 -33 0 -16 114 -25 300 -25 186 0
300 9 300 25 0 17 -245 38 -375 33z"/>
<path d="M10490 7139 c-167 -11 -224 -28 -147 -43 73 -14 364 -18 452 -7 125
17 129 25 20 40 -102 14 -217 18 -325 10z"/>
<path d="M1462 7070 c-172 -18 -178 -31 -27 -49 154 -19 436 -8 484 19 18 10
-14 17 -139 30 -107 11 -211 11 -318 0z"/>
<path d="M5050 7069 c-154 -17 -156 -32 -8 -48 124 -14 243 -14 366 0 109 12
142 23 96 33 -118 24 -313 31 -454 15z"/>
<path d="M7414 7070 c-163 -17 -168 -32 -18 -50 154 -17 426 -7 472 19 49 27
-276 50 -454 31z"/>
<path d="M11014 7070 c-165 -18 -168 -32 -12 -49 151 -17 383 -9 463 16 19 6
19 6 -2 14 -65 24 -305 34 -449 19z"/>
<path d="M841 6999 c-137 -18 -114 -33 77 -50 128 -11 331 -1 407 20 27 7 28
8 10 14 -76 25 -358 34 -494 16z"/>
<path d="M5583 6998 c-40 -6 -73 -13 -73 -18 0 -25 261 -44 419 -30 134 11
197 23 171 33 -65 26 -372 34 -517 15z"/>
<path d="M6795 6999 c-141 -18 -120 -32 70 -49 172 -16 488 10 425 34 -63 24
-354 32 -495 15z"/>
<path d="M11551 6999 c-136 -17 -109 -32 87 -49 156 -14 439 7 415 31 -25 25
-357 37 -502 18z"/>
<path d="M171 6903 c-18 -75 -22 -131 -11 -199 6 -38 15 -73 20 -78 13 -13 28
32 36 108 7 65 -10 191 -27 201 -4 3 -12 -11 -18 -32z"/>
<path d="M689 6915 c-28 -67 -8 -336 21 -284 20 36 30 149 20 216 -15 90 -25
107 -41 68z"/>
<path d="M12081 6903 c-18 -75 -22 -131 -11 -199 6 -38 15 -73 20 -78 13 -13
28 32 36 108 7 65 -10 191 -27 201 -4 3 -12 -11 -18 -32z"/>
<path d="M12599 6915 c-28 -67 -8 -336 21 -284 20 36 30 149 20 216 -15 90
-25 107 -41 68z"/>
<path d="M230 6579 c-13 -52 -9 -217 5 -251 31 -76 60 133 34 252 -6 27 -14
50 -19 50 -4 0 -14 -23 -20 -51z"/>
<path d="M621 6580 c-19 -89 -6 -270 19 -270 15 0 22 34 27 126 5 90 -9 194
-27 194 -5 0 -13 -23 -19 -50z"/>
<path d="M12140 6579 c-8 -32 -11 -87 -7 -143 7 -135 27 -167 46 -76 19 89 6
270 -19 270 -4 0 -14 -23 -20 -51z"/>
<path d="M12531 6580 c-19 -89 -6 -270 19 -270 15 0 22 34 27 126 5 90 -9 194
-27 194 -5 0 -13 -23 -19 -50z"/>
<path d="M291 6253 c-14 -70 -14 -124 -1 -194 14 -72 26 -81 40 -28 22 82 9
279 -19 279 -5 0 -13 -26 -20 -57z"/>
<path d="M566 6301 c-25 -40 -23 -243 3 -290 17 -29 34 37 35 134 1 125 -15
193 -38 156z"/>
<path d="M12200 6244 c-13 -69 -8 -181 10 -230 13 -32 19 -28 31 23 20 84 6
273 -20 273 -5 0 -14 -30 -21 -66z"/>
<path d="M12476 6301 c-3 -5 -10 -40 -16 -78 -9 -70 0 -178 20 -212 16 -29 33
38 34 134 1 125 -15 193 -38 156z"/>
<path d="M360 5970 c-25 -85 -9 -303 20 -285 4 3 14 37 20 76 13 77 7 175 -14
224 l-13 30 -13 -45z"/>
<path d="M12269 5970 c-25 -85 -9 -304 21 -285 4 3 14 37 20 76 13 77 7 175
-14 224 l-13 30 -14 -45z"/>
<path d="M500 5975 c-27 -70 -16 -282 15 -288 6 -1 16 30 24 68 11 56 12 86 3
149 -13 91 -26 113 -42 71z"/>
<path d="M12411 5977 c-18 -48 -23 -144 -11 -216 6 -39 16 -73 20 -76 11 -7
27 45 35 112 7 56 -10 189 -26 199 -5 3 -13 -6 -18 -19z"/>
<path d="M430 5685 c-5 -14 -15 -65 -21 -113 -9 -72 -9 -102 4 -176 18 -101
31 -124 47 -82 32 84 35 236 8 344 -13 52 -25 61 -38 27z"/>
<path d="M12340 5685 c-5 -14 -15 -65 -21 -113 -9 -72 -9 -102 4 -176 18 -101
31 -124 47 -82 32 84 35 236 8 344 -13 52 -25 61 -38 27z"/>
<path d="M359 5278 c-16 -57 -15 -191 1 -248 l13 -45 13 30 c21 49 27 147 14
224 -6 39 -16 73 -20 76 -5 3 -14 -14 -21 -37z"/>
<path d="M507 5313 c-3 -5 -11 -39 -17 -77 -13 -73 -7 -172 14 -221 l13 -30
11 40 c20 76 24 134 13 202 -12 71 -24 102 -34 86z"/>
<path d="M12269 5278 c-17 -57 -16 -191 1 -248 l13 -45 13 30 c21 49 27 147
14 224 -6 39 -16 73 -20 76 -5 3 -15 -14 -21 -37z"/>
<path d="M12417 5313 c-14 -23 -28 -145 -23 -200 8 -79 26 -131 37 -111 20 36
31 159 19 226 -11 70 -23 101 -33 85z"/>
<path d="M299 4985 c-28 -68 -8 -346 22 -294 29 52 29 256 0 308 -8 13 -12 11
-22 -14z"/>
<path d="M12209 4985 c-28 -68 -8 -346 22 -294 19 35 28 153 18 224 -15 93
-24 109 -40 70z"/>
<path d="M561 4963 c-15 -51 -12 -199 3 -248 l13 -40 13 30 c24 56 16 295 -10
295 -5 0 -14 -17 -19 -37z"/>
<path d="M12469 4958 c-13 -51 -8 -234 9 -263 10 -19 11 -18 23 10 23 58 14
295 -11 295 -5 0 -14 -19 -21 -42z"/>
<path d="M231 4640 c-20 -92 -7 -270 19 -270 13 0 30 86 30 154 0 72 -17 166
-30 166 -5 0 -13 -23 -19 -50z"/>
<path d="M621 4640 c-19 -89 -6 -270 19 -270 18 0 32 104 27 194 -7 135 -27
167 -46 76z"/>
<path d="M12141 4646 c-21 -83 -7 -276 19 -276 13 0 30 94 30 160 0 66 -17
160 -30 160 -4 0 -13 -20 -19 -44z"/>
<path d="M12531 4640 c-19 -89 -6 -270 19 -270 18 0 32 104 27 194 -7 135 -27
167 -46 76z"/>
<path d="M170 4339 c-23 -83 -9 -279 19 -279 11 0 31 102 31 155 0 53 -17 146
-29 158 -6 6 -14 -8 -21 -34z"/>
<path d="M689 4354 c-16 -38 -16 -230 0 -269 11 -27 13 -28 22 -12 22 38 31
145 19 219 -13 86 -24 103 -41 62z"/>
<path d="M12086 4365 c-3 -9 -10 -45 -16 -80 -11 -66 2 -201 20 -219 14 -14
31 38 37 114 8 97 -22 234 -41 185z"/>
<path d="M12601 4357 c-27 -68 -21 -261 8 -290 31 -31 47 218 19 283 l-16 35
-11 -28z"/>
<path d="M221 4025 c-64 -54 -85 -191 -43 -273 15 -28 47 -61 95 -96 71 -54
130 -110 159 -154 l15 -22 26 39 c14 21 52 61 83 87 121 102 161 147 174 193
21 80 -14 196 -72 231 -68 41 -150 14 -194 -63 l-21 -38 -13 30 c-7 17 -28 45
-47 61 -46 40 -117 43 -162 5z"/>
<path d="M12131 4025 c-61 -52 -85 -189 -46 -269 11 -23 42 -56 73 -80 81 -61
142 -116 172 -158 l28 -38 25 39 c14 21 52 61 83 87 121 102 161 147 174 193
21 80 -14 196 -72 231 -68 41 -150 14 -194 -63 l-21 -38 -13 30 c-7 17 -28 45
-47 61 -46 40 -117 43 -162 5z"/>
<path d="M172 3434 c-20 -77 -23 -121 -12 -189 13 -83 25 -100 40 -59 18 46
23 144 11 209 -14 76 -27 89 -39 39z"/>
<path d="M689 3445 c-28 -67 -8 -326 21 -274 20 35 30 143 19 208 -14 88 -24
105 -40 66z"/>
<path d="M12081 3433 c-19 -76 -22 -120 -11 -188 6 -39 15 -74 20 -79 13 -13
27 30 36 103 7 60 -10 186 -27 196 -4 3 -12 -11 -18 -32z"/>
<path d="M12599 3445 c-28 -66 -8 -326 21 -274 20 35 30 143 19 208 -14 88
-24 105 -40 66z"/>
<path d="M230 3119 c-19 -79 -5 -259 20 -259 12 0 30 93 30 155 0 62 -18 155
-30 155 -4 0 -14 -23 -20 -51z"/>
<path d="M621 3120 c-19 -87 -6 -260 19 -260 14 0 22 34 27 121 6 85 -10 189
-27 189 -5 0 -13 -23 -19 -50z"/>
<path d="M12140 3119 c-19 -79 -5 -259 20 -259 12 0 30 93 30 155 0 62 -18
155 -30 155 -4 0 -14 -23 -20 -51z"/>
<path d="M12531 3120 c-6 -28 -11 -75 -11 -105 0 -62 18 -155 30 -155 13 0 30
86 30 155 0 69 -17 155 -30 155 -5 0 -13 -23 -19 -50z"/>
<path d="M300 2845 c-18 -47 -23 -152 -10 -219 7 -36 16 -66 21 -66 27 0 41
189 19 269 -13 48 -17 50 -30 16z"/>
<path d="M559 2828 c-22 -82 -7 -280 21 -263 12 7 30 97 30 150 0 53 -18 143
-30 150 -5 3 -14 -14 -21 -37z"/>
<path d="M12210 2845 c-18 -47 -23 -152 -10 -219 7 -36 16 -66 21 -66 27 0 41
189 19 269 -13 48 -17 50 -30 16z"/>
<path d="M12475 2851 c-26 -82 -23 -230 5 -280 25 -45 50 140 31 231 -13 62
-26 80 -36 49z"/>
<path d="M361 2538 c-18 -61 -22 -134 -11 -201 7 -37 16 -70 21 -73 13 -8 27
34 35 105 6 60 -10 186 -26 196 -5 3 -13 -9 -19 -27z"/>
<path d="M499 2535 c-26 -76 -10 -289 20 -271 5 3 14 36 21 73 12 72 6 159
-14 208 l-13 30 -14 -40z"/>
<path d="M12271 2538 c-18 -61 -22 -134 -11 -201 7 -37 16 -70 21 -73 13 -8
27 34 35 105 6 60 -10 186 -26 196 -5 3 -13 -9 -19 -27z"/>
<path d="M12409 2535 c-26 -76 -10 -289 20 -271 5 3 14 36 21 73 12 72 6 159
-14 208 l-13 30 -14 -40z"/>
<path d="M431 2263 c-21 -41 -34 -181 -22 -257 12 -85 27 -130 40 -122 18 12
36 114 35 206 -1 132 -28 219 -53 173z"/>
<path d="M12342 2264 c-22 -41 -35 -181 -23 -258 12 -84 27 -130 40 -122 11 7
27 74 36 149 8 64 -10 207 -30 233 -12 16 -13 16 -23 -2z"/>
<path d="M361 1873 c-20 -78 -22 -125 -11 -193 6 -38 16 -72 21 -76 12 -7 26
31 34 98 7 58 -10 194 -25 203 -5 3 -13 -11 -19 -32z"/>
<path d="M499 1874 c-26 -75 -10 -288 20 -270 5 4 14 37 21 76 12 71 3 179
-18 216 -8 14 -12 10 -23 -22z"/>
<path d="M12271 1878 c-18 -61 -22 -134 -11 -201 7 -37 16 -70 21 -73 12 -7
26 31 34 98 7 58 -10 194 -25 203 -5 3 -13 -9 -19 -27z"/>
<path d="M12417 1904 c-36 -61 -26 -323 12 -300 20 13 33 144 21 214 -11 69
-24 101 -33 86z"/>
<path d="M301 1587 c-18 -47 -24 -158 -12 -221 12 -65 17 -74 31 -60 29 29 29
242 1 293 -8 14 -11 12 -20 -12z"/>
<path d="M561 1565 c-21 -83 -8 -265 18 -265 35 0 36 283 1 305 -4 2 -13 -15
-19 -40z"/>
<path d="M12211 1587 c-18 -47 -24 -158 -12 -221 12 -65 17 -74 31 -60 29 29
29 242 1 293 -8 14 -11 12 -20 -12z"/>
<path d="M12475 1592 c-24 -58 -13 -292 14 -292 23 0 38 164 22 242 -13 62
-25 78 -36 50z"/>
<path d="M233 1273 c-10 -36 -10 -210 0 -245 4 -16 12 -28 17 -28 16 0 25 51
25 150 0 99 -9 150 -25 150 -5 0 -13 -12 -17 -27z"/>
<path d="M621 1256 c-20 -81 -7 -256 20 -256 15 0 29 73 29 150 0 77 -14 150
-29 150 -5 0 -14 -20 -20 -44z"/>
<path d="M12145 1283 c-15 -37 -17 -207 -3 -253 14 -44 14 -45 27 -21 19 35
26 179 11 240 -13 53 -23 63 -35 34z"/>
<path d="M12535 1283 c-14 -36 -18 -180 -5 -232 21 -90 40 -61 47 74 7 120
-19 216 -42 158z"/>
<path d="M697 1004 c-14 -24 -29 -141 -24 -193 8 -70 24 -118 37 -105 20 20
32 150 20 215 -13 68 -24 97 -33 83z"/>
<path d="M12607 1004 c-14 -24 -29 -141 -24 -193 8 -70 24 -118 37 -105 19 19
31 142 20 211 -11 69 -23 102 -33 87z"/>
<path d="M176 991 c-3 -5 -10 -40 -16 -78 -9 -70 0 -178 20 -212 25 -45 49
136 30 233 -11 62 -21 78 -34 57z"/>
<path d="M12086 992 c-16 -27 -26 -147 -16 -209 14 -88 25 -107 39 -71 34 89
13 338 -23 280z"/>
<path d="M450 475 l0 -214 -74 1 c-84 1 -161 -21 -200 -57 -33 -30 -33 -40 1
-62 45 -30 158 -23 230 13 l58 29 5 175 5 175 40 -3 c51 -4 139 -46 165 -79
28 -36 25 -81 -11 -137 -39 -62 -31 -69 14 -14 90 110 71 164 -90 257 -75 43
-113 81 -113 112 0 11 -7 19 -15 19 -13 0 -15 -31 -15 -215z"/>
<path d="M835 678 c-182 -20 -75 -43 205 -43 102 0 211 4 244 8 195 28 -225
61 -449 35z"/>
<path d="M5591 679 c-179 -21 -69 -44 209 -44 102 0 211 4 244 8 196 28 -230
62 -453 36z"/>
<path d="M6204 680 c-53 -21 -94 -103 -94 -189 0 -78 32 -125 135 -201 54 -40
107 -88 125 -115 l32 -46 30 46 c17 25 55 65 86 88 152 115 179 156 169 258
-6 70 -30 115 -78 147 -59 41 -138 17 -184 -56 -11 -17 -22 -31 -25 -31 -3 0
-14 14 -25 32 -40 63 -112 91 -171 67z"/>
<path d="M6785 679 c-121 -15 -118 -24 11 -40 88 -11 410 -6 467 7 38 9 34 21
-10 28 -75 11 -390 15 -468 5z"/>
<path d="M11545 679 c-123 -15 -119 -24 20 -40 96 -11 379 -7 453 7 43 8 41
20 -5 28 -73 11 -389 15 -468 5z"/>
<path d="M12350 475 l0 -214 -73 0 c-94 1 -182 -30 -206 -72 -9 -16 -22 -27
-29 -24 -45 17 -293 26 -419 16 -215 -18 -212 -33 11 -51 126 -11 358 0 408
19 16 6 30 3 48 -8 54 -36 229 -6 270 46 18 23 20 41 20 150 l0 125 27 -7 c69
-17 184 -68 198 -88 19 -27 19 -77 0 -103 -21 -28 -18 -40 5 -19 30 27 43 77
29 111 -7 16 -11 50 -10 75 2 39 -2 52 -28 81 -17 20 -63 52 -103 73 -80 41
-118 71 -118 92 0 7 -7 13 -15 13 -13 0 -15 -31 -15 -215z m143 68 c62 -28
117 -81 117 -113 0 -25 -5 -25 -38 -2 -15 11 -55 34 -90 52 -59 31 -102 70
-102 92 0 13 42 2 113 -29z"/>
<path d="M1420 618 c-192 -21 -91 -43 200 -43 113 0 227 4 254 8 169 29 -230
60 -454 35z"/>
<path d="M5025 618 c-44 -5 -84 -13 -89 -18 -16 -16 87 -25 289 -25 110 0 222
4 249 8 168 29 -231 60 -449 35z"/>
<path d="M7380 619 c-101 -11 -121 -24 -54 -36 63 -10 435 -10 498 0 167 29
-216 59 -444 36z"/>
<path d="M10980 619 c-46 -5 -88 -13 -93 -18 -17 -17 85 -26 293 -26 113 0
227 4 254 8 168 29 -225 59 -454 36z"/>
<path d="M2040 559 c-47 -4 -96 -11 -110 -15 l-25 -6 23 -9 c49 -19 276 -29
405 -19 69 6 137 14 149 19 22 8 22 8 3 14 -32 10 -234 27 -300 26 -33 -1 -98
-5 -145 -10z"/>
<path d="M4470 559 c-47 -4 -96 -11 -110 -15 l-25 -7 30 -9 c78 -23 426 -25
539 -3 58 12 27 22 -104 34 -128 12 -205 12 -330 0z"/>
<path d="M7998 560 c-42 -4 -89 -11 -105 -15 -28 -7 -28 -7 -5 -16 47 -18 271
-29 393 -19 208 17 218 32 33 50 -120 11 -199 11 -316 0z"/>
<path d="M10410 558 c-165 -15 -138 -34 67 -46 174 -11 448 8 412 28 -20 11
-229 30 -314 29 -38 -1 -113 -6 -165 -11z"/>
<path d="M2628 499 c-48 -4 -102 -11 -120 -14 -31 -7 -32 -8 -10 -16 55 -21
289 -32 422 -20 207 19 210 33 10 51 -127 11 -174 11 -302 -1z"/>
<path d="M3914 500 c-50 -4 -107 -11 -125 -15 -32 -7 -33 -8 -11 -16 55 -21
289 -32 421 -20 72 7 141 15 154 20 21 8 21 9 -8 15 -43 9 -253 26 -300 24
-22 0 -81 -4 -131 -8z"/>
<path d="M8588 500 c-42 -4 -94 -11 -115 -15 -34 -7 -36 -8 -16 -16 54 -20
282 -31 413 -20 72 7 140 15 152 20 21 8 21 8 -4 14 -37 10 -245 27 -303 26
-27 -1 -85 -5 -127 -9z"/>
<path d="M9874 500 c-200 -17 -197 -33 9 -51 102 -8 172 -8 274 0 213 18 212
33 -4 51 -129 11 -146 11 -279 0z"/>
<path d="M3275 444 c-292 -29 -310 -41 -100 -64 207 -23 672 -1 638 30 -22 21
-416 46 -538 34z"/>
<path d="M9220 444 c-107 -10 -216 -26 -223 -33 -33 -33 428 -55 638 -31 162
19 172 31 40 50 -85 11 -379 21 -455 14z"/>
<path d="M2571 359 c-119 -14 -114 -24 24 -40 96 -11 377 -7 453 7 43 8 41 20
-5 28 -70 11 -398 15 -472 5z"/>
<path d="M3845 359 c-123 -15 -119 -24 20 -40 96 -11 387 -7 463 7 43 8 41 20
-5 28 -72 11 -398 15 -478 5z"/>
<path d="M8520 359 c-117 -16 -112 -24 25 -40 96 -11 387 -7 463 7 43 8 41 20
-5 28 -72 11 -408 15 -483 5z"/>
<path d="M9801 360 c-119 -15 -114 -25 24 -41 143 -17 485 -2 485 21 0 4 -15
10 -32 14 -60 11 -402 15 -477 6z"/>
<path d="M2000 299 c-124 -15 -124 -23 1 -40 52 -7 152 -9 264 -6 179 6 235
12 235 27 0 21 -367 34 -500 19z"/>
<path d="M4445 298 c-183 -21 -75 -43 210 -43 105 0 212 4 239 8 169 29 -229
60 -449 35z"/>
<path d="M7955 298 c-182 -20 -75 -43 205 -43 102 0 211 4 244 8 195 28 -225
61 -449 35z"/>
<path d="M10405 299 c-182 -22 -85 -44 195 -44 191 0 290 8 290 24 0 22 -352
36 -485 20z"/>
<path d="M1452 240 c-40 -5 -85 -11 -100 -15 l-27 -7 23 -9 c71 -27 444 -29
548 -3 107 27 -249 54 -444 34z"/>
<path d="M5035 238 c-158 -16 -131 -34 72 -46 173 -11 448 8 412 28 -21 12
-221 30 -313 29 -45 -1 -121 -6 -171 -11z"/>
<path d="M7405 239 c-44 -5 -91 -11 -105 -15 -25 -6 -25 -6 -3 -14 46 -18 287
-30 408 -20 214 18 225 31 41 49 -123 12 -223 12 -341 0z"/>
<path d="M10991 239 c-161 -17 -133 -34 79 -48 164 -11 435 9 398 30 -43 24
-316 34 -477 18z"/>
<path d="M888 179 c-48 -4 -102 -11 -120 -14 -31 -7 -32 -8 -11 -16 54 -20
286 -31 419 -20 74 6 144 15 156 20 22 8 22 8 -4 14 -37 10 -245 27 -303 26
-27 -1 -89 -5 -137 -10z"/>
<path d="M5640 179 c-178 -17 -169 -32 29 -49 134 -11 371 0 425 19 19 8 19 9
-9 15 -106 23 -297 29 -445 15z"/>
<path d="M6848 179 c-48 -4 -102 -11 -120 -14 -31 -7 -32 -8 -11 -16 55 -20
283 -31 413 -20 72 7 140 15 152 20 21 8 21 8 -4 14 -36 9 -245 27 -298 26
-25 -1 -84 -5 -132 -10z"/>
</g>
</svg>
